{"title":"The Big Bang Machine. BBC 832x468 x264 mp4 w/subtitles [aularon]","uid":6625122,"size":664350180,"categoryP":"video","categoryS":"tv_shows","magnet":"?xt=urn:btih:f0b5213a2ec6f07b0e482b10e726da5a675188b3&amp;dn=The+Big+Bang+Machine.+BBC+832x468+x264+mp4+w%2Fsubtitles+%5Baularon%5D&amp;tr=udp%3A%2F%2Ftracker.openbittorrent.com%3A80&amp;tr=udp%3A%2F%2Fopen.demonii.com%3A1337&amp;tr=udp%3A%2F%2Ftracker.coppersurfer.tk%3A6969&amp;tr=udp%3A%2F%2Fexodus.desync.com%3A6969","seeders":0,"leechers":1,"uploader":"aularon","files":-1,"time":1314132850,"description":"The Big Bang Machine. BBC 832x468 x264 aac mp4 w/subtitles [aularon]\n\n- - -\nSynopsis\n- - -\nProfessor Brian Cox visits Geneva to take a look around Cern's Large Hadron Collider before this vast, 27km long machine is sealed off and a simulation experiment begins to try and create the conditions that existed just a billionth of a second after the Big Bang. Cox joins the scientists who hope that the LHC will change our understanding of the early universe and solve some of its mysteries.\n\n\n- - -\nURL\n- - -   &lt;a href=&quot;\nhttp://www.bbc.co.uk/programmes/b00dccnr.html&quot; rel=&quot;nofollow&quot; target=&quot;_NEW&quot;&gt;\nhttp://www.bbc.co.uk/programmes/b00dccnr.html&lt;/a&gt;\n\n\n- - -\nTechnical Details\n- - -\nGeneral\nComplete name                    : BBC.The.Big.Bang.Machine/The_Big_Bang_Machine_-_The_Big_Bang_Machine_b00dccnr_default.mp4\nFormat                           : MPEG-4\nFormat profile                   : Base Media\nCodec ID                         : isom\nFile size                        : 633 MiB\nDuration                         : 58mn 57s\nOverall bit rate                 : 1 502 Kbps\nMovie name                       : The Big Bang Machine\nAlbum                            : The Big Bang Machine\nPerformer                        : The Big Bang Machine\nGenre                            : Factual,Science &amp; Nature\nRecorded date                    : 2008-09-04T21:00:00+01:00\nWriting application              : Lavf53.6.0\nCover                            : Yes\nComment                          : Recorded using get_iplayer, by Aularon.\nrtng                             : 2\nstik                             : 1\ndesc                             : Brian Cox looks around Cern's LHC in Geneva before it is sealed off and the experiment to try and create conditions that existed a billionth of a second after the Big Bang begins.\ntvnn                             : BBC Four\ntvsh                             : The Big Bang Machine\ntven                             : b00dccnr\ncatg                             : Factual,Science &amp; Nature\n\nVideo\nID                               : 1\nFormat                           : AVC\nFormat/Info                      : Advanced Video Codec\nFormat profile                   : &lt;a class=&quot;__cf_email__&quot; href=&quot;/cdn-cgi/l/email-protection&quot; data-cfemail=&quot;0f426e66614f433c213f&quot;&gt;[email&amp;#160;protected]&lt;/a&gt;&lt;script cf-hash='f9e31' type=&quot;text/javascript&quot;&gt;\n/* &lt;![CDATA[ */!function(){try{var t=&quot;currentScript&quot;in document?document.currentScript:function(){for(var t=document.getElementsByTagName(&quot;script&quot;),e=t.length;e--;)if(t[e].getAttribute(&quot;cf-hash&quot;))return t[e]}();if(t&amp;&amp;t.previousSibling){var e,r,n,i,c=t.previousSibling,a=c.getAttribute(&quot;data-cfemail&quot;);if(a){for(e=&quot;&quot;,r=parseInt(a.substr(0,2),16),n=2;a.length-n;n+=2)i=parseInt(a.substr(n,2),16)^r,e+=String.fromCharCode(i);e=document.createTextNode(e),c.parentNode.replaceChild(e,c)}}}catch(u){}}();/* ]]&gt; */&lt;/script&gt;\nFormat settings, CABAC           : Yes\nFormat settings, ReFrames        : 4 frames\nCodec ID                         : avc1\nCodec ID/Info                    : Advanced Video Coding\nDuration                         : 58mn 57s\nBit rate mode                    : Constant\nBit rate                         : 1 404 Kbps\nWidth                            : 832 pixels\nHeight                           : 468 pixels\nDisplay aspect ratio             : 16:9\nFrame rate mode                  : Constant\nFrame rate                       : 25.000 fps\nStandard                         : PAL\nColor space                      : YUV\nChroma subsampling               : 4:2:0\nBit depth                        : 8 bits\nScan type                        : Progressive\nBits/(Pixel*Frame)               : 0.144\nStream size                      : 591 MiB (93%)\n\nAudio\nID                               : 2\nFormat                           : AAC\nFormat/Info                      : Advanced Audio Codec\nFormat profile                   : HE-AAC / LC\nCodec ID                         : 40\nDuration                         : 58mn 57s\nBit rate mode                    : Constant\nBit rate                         : 96.0 Kbps\nChannel(s)                       : 2 channels\nChannel positions                : Front: L R\nSampling rate                    : 48.0 KHz / 24.0 KHz\nCompression mode                 : Lossy\nStream size                      : 39.9 MiB (6%)\n","torrent":{"xt":"urn:btih:f0b5213a2ec6f07b0e482b10e726da5a675188b3","amp;dn":"The+Big+Bang+Machine.+BBC+832x468+x264+mp4+w%2Fsubtitles+%5Baularon%5D","amp;tr":["udp%3A%2F%2Ftracker.openbittorrent.com%3A80","udp%3A%2F%2Fopen.demonii.com%3A1337","udp%3A%2F%2Ftracker.coppersurfer.tk%3A6969","udp%3A%2F%2Fexodus.desync.com%3A6969"],"infoHash":"f0b5213a2ec6f07b0e482b10e726da5a675188b3","infoHashBuffer":{"type":"Buffer","data":[240,181,33,58,46,198,240,123,14,72,43,16,231,38,218,90,103,81,136,179]},"announce":[],"urlList":[]}}